<?xml version="1.0" encoding="utf-8"?>
<!-- Generator: Adobe Illustrator 24.0.1, SVG Export Plug-In . SVG Version: 6.00 Build 0)  -->
<svg version="1.1" id="Layer_1" xmlns="http://www.w3.org/2000/svg" xmlns:xlink="http://www.w3.org/1999/xlink" x="0px" y="0px"
	 viewBox="0 0 1000 1000" style="enable-background:new 0 0 1000 1000;" xml:space="preserve">
<style type="text/css">
	.st0{fill:#1E4382;}
</style>
<g>
	<g>
		<g>
			<path class="st0" d="M149.54,541.15h40.89c9.47,0,17.87,1.77,25.2,5.31c7.33,3.54,13.01,8.57,17.05,15.07
				c4.03,6.51,6.05,14.12,6.05,22.85c0,8.73-2.02,16.35-6.05,22.85c-4.04,6.51-9.72,11.53-17.05,15.07
				c-7.33,3.54-15.73,5.31-25.2,5.31h-40.89V541.15z M189.44,608.1c7.41,0,13.36-2.1,17.85-6.3c4.49-4.2,6.73-10.01,6.73-17.42
				c0-7.41-2.24-13.22-6.73-17.42c-4.49-4.2-10.44-6.3-17.85-6.3H174v47.43H189.44z"/>
		</g>
		<g>
			<path class="st0" d="M320.62,610.82h-36.57l-6.79,16.8h-24.95l38.17-86.47h24.09l38.29,86.47h-25.45L320.62,610.82z
				 M313.46,592.78l-11.12-27.67l-11.12,27.67H313.46z"/>
		</g>
		<g>
			<path class="st0" d="M372.13,541.15h24.46v67.07h41.26v19.39h-65.72V541.15z"/>
		</g>
		<g>
			<path class="st0" d="M459.83,541.15h24.46v86.47h-24.46V541.15z"/>
		</g>
		<g>
			<path class="st0" d="M149.54,683.4H174v67.07h41.26v19.39h-65.72V683.4z"/>
		</g>
		<g>
			<path class="st0" d="M254.84,765.8c-7.29-3.87-13.01-9.22-17.17-16.06c-4.16-6.83-6.24-14.53-6.24-23.1
				c0-8.56,2.08-16.26,6.24-23.1c4.16-6.83,9.88-12.19,17.17-16.06c7.29-3.87,15.5-5.8,24.64-5.8c9.14,0,17.36,1.94,24.64,5.8
				c7.29,3.87,13.01,9.22,17.17,16.06c4.16,6.84,6.24,14.54,6.24,23.1c0,8.57-2.08,16.27-6.24,23.1
				c-4.16,6.84-9.88,12.19-17.17,16.06c-7.29,3.87-15.5,5.81-24.64,5.81C270.35,771.6,262.13,769.67,254.84,765.8z M291.35,748.26
				c3.54-2.06,6.34-4.96,8.4-8.71c2.06-3.75,3.09-8.05,3.09-12.91c0-4.86-1.03-9.16-3.09-12.91c-2.06-3.75-4.86-6.65-8.4-8.71
				c-3.54-2.06-7.49-3.09-11.86-3.09c-4.37,0-8.32,1.03-11.86,3.09c-3.54,2.06-6.34,4.96-8.4,8.71c-2.06,3.75-3.09,8.05-3.09,12.91
				c0,4.86,1.03,9.16,3.09,12.91c2.06,3.75,4.86,6.65,8.4,8.71c3.54,2.06,7.49,3.09,11.86,3.09
				C283.85,751.34,287.8,750.31,291.35,748.26z"/>
		</g>
		<g>
			<path class="st0" d="M410.67,724.79h21.62v35.82c-4.94,3.54-10.62,6.26-17.05,8.15c-6.42,1.89-12.85,2.84-19.27,2.84
				c-9.06,0-17.21-1.91-24.46-5.74c-7.25-3.83-12.93-9.16-17.05-16c-4.12-6.83-6.18-14.58-6.18-23.22c0-8.65,2.06-16.39,6.18-23.22
				c4.12-6.83,9.84-12.17,17.17-16c7.33-3.83,15.6-5.74,24.83-5.74c8.07,0,15.32,1.36,21.74,4.08c6.42,2.72,11.78,6.63,16.06,11.74
				l-15.56,14.08c-5.85-6.42-12.85-9.64-21-9.64c-7.41,0-13.38,2.25-17.91,6.73c-4.53,4.49-6.79,10.48-6.79,17.97
				c0,4.78,1.03,9.04,3.09,12.79c2.06,3.75,4.94,6.67,8.65,8.77c3.71,2.1,7.95,3.15,12.72,3.15c4.69,0,9.1-0.94,13.22-2.84V724.79z"
				/>
		</g>
		<g>
			<path class="st0" d="M460.21,683.4h24.46v86.47h-24.46V683.4z"/>
		</g>
		<g>
			<path class="st0" d="M524.43,769.01c-6.59-1.73-11.94-4.03-16.06-6.92l8.03-18.03c3.87,2.55,8.36,4.61,13.47,6.18
				c5.1,1.57,10.13,2.35,15.07,2.35c9.39,0,14.08-2.35,14.08-7.04c0-2.47-1.34-4.3-4.01-5.5c-2.68-1.19-6.98-2.45-12.91-3.77
				c-6.51-1.4-11.94-2.9-16.3-4.51c-4.37-1.61-8.11-4.18-11.24-7.72c-3.13-3.54-4.69-8.32-4.69-14.33c0-5.27,1.44-10.02,4.32-14.27
				c2.88-4.24,7.18-7.6,12.91-10.07c5.72-2.47,12.74-3.71,21.06-3.71c5.68,0,11.28,0.64,16.8,1.91c5.52,1.28,10.38,3.15,14.58,5.62
				l-7.54,18.16c-8.24-4.45-16.23-6.67-23.96-6.67c-4.86,0-8.4,0.72-10.62,2.16c-2.23,1.44-3.34,3.32-3.34,5.62
				c0,2.31,1.32,4.04,3.95,5.19c2.63,1.15,6.88,2.35,12.72,3.58c6.59,1.4,12.05,2.9,16.37,4.51c4.32,1.61,8.07,4.16,11.24,7.66
				c3.17,3.5,4.75,8.26,4.75,14.27c0,5.19-1.44,9.88-4.32,14.08c-2.88,4.2-7.21,7.56-12.97,10.07c-5.77,2.51-12.76,3.77-21,3.77
				C537.82,771.6,531.02,770.74,524.43,769.01z"/>
		</g>
		<g>
			<path class="st0" d="M623.87,702.8h-26.56V683.4h77.45v19.39h-26.43v67.07h-24.46V702.8z"/>
		</g>
		<g>
			<path class="st0" d="M696.26,683.4h24.46v86.47h-24.46V683.4z"/>
		</g>
		<g>
			<path class="st0" d="M769.2,765.86c-7.21-3.83-12.87-9.16-16.98-16c-4.12-6.83-6.18-14.58-6.18-23.22
				c0-8.65,2.06-16.39,6.18-23.22c4.12-6.83,9.78-12.17,16.98-16c7.2-3.83,15.34-5.74,24.4-5.74c7.9,0,15.03,1.4,21.37,4.2
				c6.34,2.8,11.61,6.84,15.81,12.11l-15.56,14.08c-5.6-6.75-12.4-10.13-20.38-10.13c-4.69,0-8.88,1.03-12.54,3.09
				c-3.66,2.06-6.51,4.96-8.52,8.71c-2.02,3.75-3.03,8.05-3.03,12.91c0,4.86,1.01,9.16,3.03,12.91c2.02,3.75,4.86,6.65,8.52,8.71
				c3.66,2.06,7.84,3.09,12.54,3.09c7.99,0,14.78-3.37,20.38-10.13l15.56,14.08c-4.2,5.27-9.47,9.31-15.81,12.11
				c-6.34,2.8-13.47,4.2-21.37,4.2C784.54,771.6,776.4,769.69,769.2,765.86z"/>
		</g>
	</g>
	<g>
		<g>
			<path class="st0" d="M223.59,387.9h-16.05v49.31h16.05c7.7,0,13.89-2.18,18.56-6.55c4.67-4.36,7-10.4,7-18.11
				c0-7.71-2.33-13.74-7-18.11C237.48,390.08,231.29,387.9,223.59,387.9z"/>
		</g>
		<g>
			<path class="st0" d="M266.19,228.83L149.54,345.48V485.2l139.72,0l62.07-62.07l0-84.28l54.58-54.58v-55.44L266.19,228.83z
				 M268.53,436.31c-4.2,6.76-10.1,11.99-17.72,15.67c-7.62,3.68-16.35,5.52-26.2,5.52h-42.51v-89.89h42.51
				c9.84,0,18.58,1.84,26.2,5.52c7.62,3.68,13.52,8.91,17.72,15.67c4.19,6.76,6.29,14.68,6.29,23.76
				C274.83,421.63,272.73,429.55,268.53,436.31z"/>
		</g>
	</g>
	<g>
		<path class="st0" d="M488.01,228.83L371.36,345.48l0,139.72l139.72,0l62.07-62.07v-84.28l54.58-54.58l0-55.43L488.01,228.83z
			 M473.01,457.5h-68.32v-89.89h25.43v69.73h42.89V457.5z"/>
	</g>
	<g>
		<path class="st0" d="M709.82,228.83L593.17,345.48V485.2l139.72,0l116.65-116.65V228.83L709.82,228.83z M652.38,425.98
			c2.1,3.9,5.05,6.91,8.86,9.05c3.81,2.14,8.15,3.21,13.03,3.21c8.3,0,15.37-3.51,21.19-10.53l16.18,14.64
			c-4.37,5.48-9.85,9.68-16.44,12.58c-6.59,2.91-14,4.37-22.22,4.37c-9.42,0-17.87-1.99-25.36-5.97
			c-7.49-3.98-13.38-9.52-17.66-16.63c-4.28-7.1-6.42-15.15-6.42-24.14c0-8.99,2.14-17.04,6.42-24.14
			c4.28-7.11,10.17-12.65,17.66-16.63c7.49-3.98,15.94-5.97,25.36-5.97c8.22,0,15.62,1.46,22.22,4.37
			c6.59,2.91,12.07,7.11,16.44,12.58l-16.18,14.64c-5.82-7.02-12.89-10.53-21.19-10.53c-4.88,0-9.23,1.07-13.03,3.21
			c-3.81,2.14-6.76,5.16-8.86,9.05s-3.14,8.37-3.14,13.42S650.28,422.08,652.38,425.98z"/>
	</g>
</g>
</svg>
